# xmcd CD database file
#
# Track frame offsets:
#	150
#	23597
#	40905
#
# Disc length: 772 seconds
#
# Revision: 0
# Processed by: cddbd v1.5.1PL0 Copyright (c) Steve Scherf et al.
# Submitted via: CDex 1.51
#
DISCID=18030203
DTITLE=杏子 - 悲しきは・・・
DYEAR=1900
DGENRE=JPop
TTITLE0=悲しきは・・・
TTITLE1=地団駄’９９
TTITLE2=歌謡曲
EXTD=
EXTT0=
EXTT1=
EXTT2=
PLAYORDER=
